<?xml version="1.0" standalone="no"?>
<!DOCTYPE svg PUBLIC "-//W3C//DTD SVG 20010904//EN"
 "http://www.w3.org/TR/2001/REC-SVG-20010904/DTD/svg10.dtd">
<svg version="1.0" xmlns="http://www.w3.org/2000/svg"
 width="512.000000pt" height="512.000000pt" viewBox="0 0 512.000000 512.000000"
 preserveAspectRatio="xMidYMid meet">
<metadata>
Created by potrace 1.14, written by Peter Selinger 2001-2017
</metadata>
<g transform="translate(0.000000,512.000000) scale(0.100000,-0.100000)"
fill="#000000" stroke="none">
<path d="M1930 4800 l0 -320 55 0 55 0 0 -133 0 -134 -170 -406 -171 -406 -6
-1700 -6 -1701 871 0 872 0 0 1722 0 1722 -180 393 -180 394 0 125 0 124 60 0
60 0 0 320 0 320 -630 0 -630 0 0 -320z m960 -417 c0 -226 4 -263 25 -263 12
0 92 -176 84 -184 -2 -2 -38 7 -79 21 -63 21 -88 25 -160 21 -102 -5 -130 -18
-223 -104 -112 -104 -190 -116 -336 -54 -38 17 -81 30 -95 30 -15 0 -26 2 -26
4 0 2 29 74 65 159 l65 155 0 216 0 216 340 0 340 0 0 -217z m-557 -767 c112
-61 119 -226 14 -310 -35 -28 -46 -31 -106 -31 -56 0 -74 4 -108 27 -85 56
-109 184 -49 262 64 85 156 104 249 52z m385 -104 c80 -75 30 -205 -78 -204
-96 2 -149 107 -94 187 37 53 124 61 172 17z m348 -323 c61 -37 83 -133 44
-197 -44 -71 -136 -93 -203 -48 l-35 24 5 -38 c15 -108 -81 -211 -198 -212
-182 -1 -273 220 -142 344 80 76 193 77 274 2 l25 -24 1 35 c1 51 32 97 83
123 51 26 94 23 146 -9z m-921 -119 c87 -54 79 -177 -15 -225 -37 -19 -64 -19
-107 2 -46 21 -73 67 -73 122 0 37 6 49 39 82 33 33 45 39 81 39 25 0 56 -8
75 -20z m955 -1340 l0 -740 -560 0 -560 0 0 740 0 740 560 0 560 0 0 -740z
m-93 -1009 c58 -26 112 -77 145 -141 18 -36 23 -61 23 -125 0 -93 -22 -149
-82 -208 -59 -60 -106 -77 -208 -77 -109 0 -154 19 -220 92 -74 83 -94 187
-54 293 60 162 235 235 396 166z m-667 -261 c81 -41 133 -122 134 -210 0 -30
-3 -61 -7 -67 -6 -9 -39 -13 -109 -13 l-101 0 21 23 c43 46 14 117 -46 117
-61 0 -87 -76 -40 -120 l22 -20 -107 0 -106 0 -7 35 c-15 81 24 180 92 231 70
54 176 64 254 24z"/>
<path d="M2811 544 c-55 -46 -59 -124 -10 -173 78 -79 202 -25 202 88 0 38 -5
49 -36 78 -48 43 -109 46 -156 7z"/>
</g>
</svg>
