<?xml version="1.0" standalone="no"?>
<!DOCTYPE svg PUBLIC "-//W3C//DTD SVG 20010904//EN"
 "http://www.w3.org/TR/2001/REC-SVG-20010904/DTD/svg10.dtd">
<svg version="1.0" xmlns="http://www.w3.org/2000/svg"
 width="512.000000pt" height="512.000000pt" viewBox="0 0 512.000000 512.000000"
 preserveAspectRatio="xMidYMid meet">
<metadata>
Created by potrace 1.14, written by Peter Selinger 2001-2017
</metadata>
<g transform="translate(0.000000,512.000000) scale(0.100000,-0.100000)"
fill="#000000" stroke="none">
<path d="M3460 4825 c-190 -42 -356 -135 -513 -284 -114 -109 -192 -219 -293
-413 -61 -116 -104 -186 -135 -219 -59 -61 -73 -110 -54 -182 12 -45 11 -56
-1 -83 -25 -53 -120 -160 -207 -234 -71 -60 -87 -70 -120 -70 -52 0 -102 -25
-133 -66 -19 -25 -28 -53 -35 -111 -15 -125 -43 -192 -140 -337 -68 -103 -113
-157 -199 -239 -101 -98 -113 -107 -149 -107 -45 0 -96 -31 -127 -77 -15 -22
-24 -60 -32 -125 -16 -143 -50 -218 -136 -302 -39 -37 -99 -91 -134 -119 -63
-51 -64 -52 -125 -49 -52 3 -68 0 -96 -20 -61 -41 -73 -67 -83 -177 -5 -63
-24 -156 -49 -244 -65 -233 -81 -313 -81 -422 -1 -125 12 -186 67 -300 99
-207 266 -320 511 -345 104 -11 249 -1 374 25 36 8 132 19 213 25 194 14 264
35 326 99 25 25 57 69 71 96 25 48 31 53 180 132 195 103 282 133 388 133 63
0 88 5 122 23 53 28 90 90 90 153 0 40 4 46 81 118 44 42 127 107 185 146 95
63 129 79 206 95 33 6 84 49 103 85 8 15 19 55 24 89 12 75 36 115 116 200 70
75 183 152 266 182 69 25 125 80 134 133 4 19 1 66 -5 104 -17 91 -2 140 91
302 39 69 85 153 102 186 27 56 34 63 67 68 53 8 102 45 128 96 27 55 28 92 0
150 -29 64 -26 138 12 310 30 130 33 160 32 287 l-2 141 35 42 c69 82 67 153
-6 250 -50 67 -62 90 -145 282 -90 208 -144 298 -234 388 -82 82 -166 132
-285 170 -91 29 -307 37 -405 15z m343 -354 c107 -42 178 -138 272 -366 21
-49 56 -128 80 -175 41 -84 42 -85 28 -130 -8 -25 -17 -87 -20 -139 -6 -85 -9
-97 -32 -117 -19 -16 -27 -34 -31 -74 l-5 -53 -45 -11 c-116 -29 -91 -176 30
-176 l32 0 -9 -62 c-4 -35 -8 -91 -8 -126 0 -60 -2 -66 -40 -106 -22 -24 -65
-92 -96 -152 -37 -71 -61 -108 -70 -105 -8 2 -28 6 -46 9 -34 4 -55 -12 -110
-85 -12 -16 -49 -44 -82 -62 -66 -35 -81 -53 -81 -99 0 -21 9 -38 31 -56 37
-31 57 -32 109 -6 22 11 41 20 44 20 2 0 -2 -21 -10 -47 -8 -26 -17 -77 -20
-113 l-6 -66 -59 -32 c-170 -94 -332 -269 -400 -432 -27 -64 -28 -66 -110
-110 -200 -108 -423 -297 -496 -420 -10 -17 -29 -33 -43 -36 -102 -22 -220
-69 -400 -161 -220 -113 -263 -145 -307 -229 -31 -60 -19 -56 -213 -69 -47 -3
-131 -15 -188 -26 -127 -23 -287 -25 -361 -3 -35 10 -66 29 -92 55 -97 97
-113 216 -57 426 17 65 43 164 58 221 l27 103 89 58 c110 72 243 188 327 287
52 60 73 95 105 177 22 56 44 119 47 139 6 31 18 45 78 89 233 172 496 531
558 760 11 39 19 48 77 84 91 55 307 270 370 367 59 91 81 150 89 238 5 53 14
78 49 137 24 40 68 121 97 180 69 142 117 213 202 299 103 105 233 183 354
214 64 16 220 6 284 -19z"/>
<path d="M3134 4069 c-104 -65 -160 -138 -150 -194 8 -42 39 -65 88 -65 31 0
42 6 74 46 21 25 57 57 81 71 79 46 93 94 44 144 -38 38 -74 37 -137 -2z"/>
<path d="M3757 3900 c-48 -38 -45 -91 8 -144 20 -21 25 -35 25 -79 0 -78 16
-116 56 -133 56 -23 107 9 119 76 8 49 -19 193 -45 235 -39 63 -114 84 -163
45z"/>
<path d="M2722 3350 c-104 -75 -159 -254 -97 -315 30 -31 82 -33 113 -5 22 20
25 31 37 102 4 28 20 52 55 87 59 59 66 96 25 136 -34 35 -81 33 -133 -5z"/>
<path d="M3770 3175 c-20 -21 -22 -31 -17 -74 6 -53 -5 -72 -51 -86 -24 -7
-52 -52 -52 -83 0 -30 37 -70 71 -77 48 -11 134 36 170 93 49 77 48 183 -2
233 -28 28 -89 26 -119 -6z"/>
<path d="M3342 2673 c-11 -10 -29 -51 -41 -90 -15 -52 -28 -76 -44 -84 -64
-33 -90 -92 -67 -150 14 -32 55 -59 90 -59 11 0 43 21 71 47 61 57 118 169
126 247 5 49 3 57 -20 80 -31 31 -85 35 -115 9z"/>
<path d="M2143 2540 c-76 -43 -133 -136 -133 -215 0 -60 68 -102 119 -74 26
15 40 36 62 97 9 24 25 40 59 57 26 13 50 31 54 40 23 61 -16 125 -76 125 -18
0 -56 -14 -85 -30z"/>
<path d="M3188 2121 c-13 -11 -30 -37 -36 -58 -7 -25 -22 -45 -42 -56 -33 -20
-60 -64 -60 -97 0 -28 52 -80 80 -80 12 0 50 16 85 35 64 36 64 36 90 114 20
60 23 84 16 103 -21 55 -87 74 -133 39z"/>
<path d="M2777 1989 c-10 -6 -27 -30 -37 -54 -19 -45 -62 -83 -118 -105 -40
-16 -72 -54 -72 -87 0 -32 51 -83 84 -83 41 0 131 45 181 91 86 79 113 173 66
223 -26 28 -71 34 -104 15z"/>
<path d="M1437 1710 c-48 -42 -119 -167 -119 -210 0 -63 76 -102 129 -65 12 9
34 38 50 66 18 35 38 56 62 67 96 46 63 172 -45 172 -34 0 -51 -7 -77 -30z"/>
<path d="M2527 1449 c-9 -5 -24 -23 -32 -39 -12 -23 -23 -30 -44 -30 -42 0
-91 -44 -91 -82 0 -16 5 -38 10 -49 24 -44 114 -63 168 -35 67 35 129 132 116
181 -13 51 -81 80 -127 54z"/>
<path d="M2097 1379 c-10 -6 -29 -28 -42 -49 -30 -48 -54 -56 -109 -35 -40 15
-46 15 -74 1 -40 -21 -56 -67 -38 -110 19 -46 100 -80 172 -73 155 16 272 176
183 251 -32 27 -62 32 -92 15z"/>
<path d="M1745 959 c-22 -17 -59 -40 -82 -51 -72 -32 -93 -89 -52 -142 40 -51
149 -23 238 62 48 46 54 86 19 126 -37 42 -76 43 -123 5z"/>
</g>
</svg>
